<?xml version="1.0" encoding="UTF-8"?>
<svg version="1.1" xmlns="http://www.w3.org/2000/svg" width="1536" height="1024">
<path d="M0 0 C3.85099898 3.21742976 7.13349739 6.41444477 10.125 10.4375 C11.40127931 1.5035448 11.67433011 -7.54910213 12.125 -16.5625 C29.945 -16.5625 47.765 -16.5625 66.125 -16.5625 C66.16719114 -9.26577663 66.20723169 -1.9695071 66.22850037 5.32723236 C66.23896742 8.72675411 66.25290187 12.1261726 66.27587891 15.52563477 C66.45148646 43.56602943 66.45148646 43.56602943 64.125 56.4375 C63.85582591 58.3494042 63.59258884 60.26215577 63.3359375 62.17578125 C61.49234542 74.74216993 58.97483908 87.08262164 56.0625 99.4375 C55.89087341 100.16933502 55.71924683 100.90117004 55.54241943 101.65518188 C53.72566793 109.3611513 51.84788845 116.99166576 49.125 124.4375 C48.69960938 125.63890625 48.27421875 126.8403125 47.8359375 128.078125 C39.12943313 151.60096137 29.26763659 173.57742732 14.31079102 193.80615234 C13.20909207 195.32181064 12.16437268 196.87844098 11.125 198.4375 C10.465 198.4375 9.805 198.4375 9.125 198.4375 C8.795 190.1875 8.465 181.9375 8.125 173.4375 C6.866875 174.901875 5.60875 176.36625 4.3125 177.875 C-11.66212996 195.57729371 -34.22698737 207.22469456 -58.20019531 208.6328125 C-83.81573172 209.46923818 -106.46802058 206.11384364 -128.875 193.4375 C-129.78161377 192.92727295 -129.78161377 192.92727295 -130.70654297 192.40673828 C-155.86877119 177.95476273 -171.92857179 155.10284265 -179.875 127.4375 C-180.08769531 126.71304688 -180.30039063 125.98859375 -180.51953125 125.2421875 C-188.509362 95.92698116 -182.63284132 62.37710531 -167.94140625 36.23339844 C-165.00694183 31.29156687 -161.55881219 26.83644049 -157.875 22.4375 C-157.05386719 21.45265625 -156.23273438 20.4678125 -155.38671875 19.453125 C-140.7463393 2.44979492 -121.4578615 -10.30418404 -99.875 -16.5625 C-98.67488281 -16.95308594 -97.47476563 -17.34367187 -96.23828125 -17.74609375 C-63.77647083 -27.28658119 -26.27894636 -20.93169087 0 0 Z " fill="#D01313" transform="translate(388.875,388.5625)"/>
<path d="M0 0 C16.38253158 -0.60601227 33.07794166 4.78293963 45.48046875 15.6328125 C47.02131042 17.13337073 48.54385832 18.6530622 50.04296875 20.1953125 C50.6771875 20.80890625 51.31140625 21.4225 51.96484375 22.0546875 C62.69987039 33.16971508 67.54944373 48.56283511 67.32226562 63.72363281 C66.79371776 80.78062733 62.91034845 96.41124585 51.04296875 109.1953125 C50.35332031 109.96359375 49.66367187 110.731875 48.953125 111.5234375 C37.8533128 123.30601495 21.65349285 130.75689818 5.42578125 131.43359375 C-14.50800735 131.8548103 -30.79588928 128.58014089 -45.73828125 114.41796875 C-59.99305125 100.13810232 -65.40308919 82.60605682 -65.39306641 62.72753906 C-65.04139977 44.71138674 -57.43941818 30.91402689 -44.95703125 18.1953125 C-44.34214844 17.5559375 -43.72726562 16.9165625 -43.09375 16.2578125 C-31.39178989 5.03194927 -15.68050647 1.03570056 0 0 Z " fill="#FDFCFC" transform="translate(328.95703125,415.8046875)"/>
<path d="M0 0 C11.323125 -0.12375 11.323125 -0.12375 22.875 -0.25 C25.23769043 -0.28641602 27.60038086 -0.32283203 30.03466797 -0.36035156 C31.93716528 -0.37204951 33.83967271 -0.38223871 35.7421875 -0.390625 C37.18766968 -0.4213208 37.18766968 -0.4213208 38.66235352 -0.45263672 C47.77731559 -0.45726008 55.89103602 1.99217474 62.59375 8.39453125 C67.65566279 14.17354835 67.53572812 20.34554781 67.33984375 27.7578125 C66.53466157 35.43943559 60.62349796 39.38654779 55 44 C56.19625 44.515625 57.3925 45.03125 58.625 45.5625 C63.18648753 47.85539693 66.2665947 50.6856007 69 55 C69.875 57.6875 69.875 57.6875 70 61 C70.08378906 61.89976562 70.16757812 62.79953125 70.25390625 63.7265625 C70.65028097 70.38903116 69.95784497 74.76014537 65.83203125 80.09375 C59.86997636 86.29733803 52.86380555 88.60831906 44.38050842 89.17497253 C41.53158602 89.22958564 38.68911015 89.2254058 35.83984375 89.1953125 C34.46753601 89.19229126 34.46753601 89.19229126 33.06750488 89.18920898 C29.69078467 89.17884364 26.31413663 89.15092207 22.9375 89.125 C11.5834375 89.063125 11.5834375 89.063125 0 89 C0 59.63 0 30.26 0 0 Z " fill="#12781A" transform="translate(785,429)"/>
<path d="M0 0 C1.875 1.625 1.875 1.625 3 3 C3 3.66 3 4.32 3 5 C3.66 5 4.32 5 5 5 C5 1.7 5 -1.6 5 -5 C11.27 -5 17.54 -5 24 -5 C24 17.44 24 39.88 24 63 C17.73 63 11.46 63 5 63 C4.505 58.545 4.505 58.545 4 54 C3.54625 54.721875 3.0925 55.44375 2.625 56.1875 C-1.86646512 60.99978406 -8.93941744 64.62299005 -15.56640625 65.23828125 C-25.34828349 65.48059633 -32.36570747 63.74497511 -39.75 57.125 C-48.04599541 48.06276701 -50.78249788 38.31014713 -50.5090332 26.34887695 C-49.96708986 15.65676225 -46.59430565 8.19576504 -38.6875 0.8125 C-26.92527666 -9.30803372 -12.30325557 -9.373909 0 0 Z " fill="#167B1E" transform="translate(744,455)"/>
<path d="M0 0 C2.74168487 1.91762458 4.89013654 3.90633118 7.06640625 6.4453125 C7.39640625 3.4753125 7.72640625 0.5053125 8.06640625 -2.5546875 C14.33640625 -2.5546875 20.60640625 -2.5546875 27.06640625 -2.5546875 C27.06640625 19.8853125 27.06640625 42.3253125 27.06640625 65.4453125 C20.79640625 65.4453125 14.52640625 65.4453125 8.06640625 65.4453125 C7.57140625 60.9903125 7.57140625 60.9903125 7.06640625 56.4453125 C6.40640625 57.3528125 5.74640625 58.2603125 5.06640625 59.1953125 C1.07761104 63.98866584 -4.72853049 66.85435409 -10.93359375 67.4453125 C-20.6712296 68.13348465 -27.5932911 66.73800673 -35.18359375 60.3828125 C-39.84825306 55.94269425 -42.57211956 51.38835588 -44.93359375 45.4453125 C-45.29710937 44.68992187 -45.660625 43.93453125 -46.03515625 43.15625 C-48.88752088 34.54954976 -47.79756039 23.03313588 -44.265625 14.80859375 C-42.01104394 10.80853058 -39.23359938 7.61533979 -35.93359375 4.4453125 C-35.18916016 3.70474609 -35.18916016 3.70474609 -34.4296875 2.94921875 C-25.01236305 -5.69829716 -10.83708363 -6.24873027 0 0 Z " fill="#177A1F" transform="translate(1199.93359375,452.5546875)"/>
<path d="M0 0 C7.26 0 14.52 0 22 0 C22.70382812 1.84464844 23.40765625 3.68929688 24.1328125 5.58984375 C26.47633192 11.68447852 28.90129907 17.74270581 31.35131836 23.79541016 C35.73709982 34.63157947 39.99160637 45.47737677 43.76245117 56.54663086 C45.90491517 62.82065631 48.3664099 68.91549873 51 75 C51.77973169 76.82956651 52.55098431 78.66277683 53.3125 80.5 C53.63863281 81.2734375 53.96476563 82.046875 54.30078125 82.84375 C55 85 55 85 55 89 C48.4 89 41.8 89 35 89 C34.175 86.586875 33.35 84.17375 32.5 81.6875 C32.23896484 80.93170654 31.97792969 80.17591309 31.70898438 79.3972168 C30.72282302 76.47512677 30 74.10385594 30 71 C17.46 71 4.92 71 -8 71 C-8.99 74.3 -9.98 77.6 -11 81 C-11.99 83.64 -12.98 86.28 -14 89 C-20.6 89 -27.2 89 -34 89 C-31.56962324 80.13627301 -28.23153615 71.70211808 -24.85351562 63.16845703 C-23.67050543 60.1628802 -22.52304839 57.14407662 -21.375 54.125 C-19.83793546 50.11461337 -18.23504818 46.14320918 -16.5625 42.1875 C-13.75547975 35.51752711 -11.25173969 28.74385794 -8.73193359 21.96191406 C-7.60747781 18.94786247 -6.46246044 15.94190116 -5.3125 12.9375 C-4.93738281 11.95652344 -4.56226563 10.97554688 -4.17578125 9.96484375 C-2.84812115 6.6170231 -1.41868844 3.31027303 0 0 Z " fill="#147B1C" transform="translate(532,429)"/>
<path d="M0 0 C6.86555221 5.47936453 11.31784906 12.30888683 13 21 C13.97980923 32.05996781 12.35047178 41.85845062 5.6875 50.9375 C-1.59875321 59.52875378 -10.23357531 63.20897526 -21.375 64.34375 C-32.48256669 64.82252443 -40.67977244 62.42504174 -49.2890625 55.03515625 C-57.5073113 46.2049102 -60.52803457 35.59048743 -60.24609375 23.69921875 C-59.26017627 12.88542542 -53.11952877 5.26199548 -45.015625 -1.52734375 C-31.78318809 -11.19522886 -13.12052573 -8.11203793 0 0 Z " fill="#15781D" transform="translate(1058,456)"/>
<path d="M0 0 C6.6 0 13.2 0 20 0 C22.79314504 6.59492579 25.48283623 13.18287885 27.89453125 19.92578125 C29.27801357 23.77313316 30.6968254 27.60655027 32.125 31.4375 C32.37886475 32.12424805 32.63272949 32.81099609 32.89428711 33.51855469 C33.88043396 36.15914624 34.8568112 38.73021714 36.1796875 41.22265625 C37 43 37 43 37 47 C37.66 47 38.32 47 39 47 C39.11730469 45.98550781 39.23460937 44.97101563 39.35546875 43.92578125 C39.98387773 40.09819926 40.97168089 36.81974992 42.3125 33.1875 C42.76367188 31.96160156 43.21484375 30.73570312 43.6796875 29.47265625 C45.03972567 25.89551442 46.44193485 22.34046021 47.88671875 18.796875 C50.36420074 12.5727448 52.65963058 6.27644525 55 0 C61.6 0 68.2 0 75 0 C73.41191061 5.71712179 71.72830059 10.90698982 68.96484375 16.15234375 C67.46483953 19.02482147 66.23910974 22.00884671 65 25 C64.63003906 25.88558594 64.26007813 26.77117187 63.87890625 27.68359375 C63.0768833 29.60495091 62.27599202 31.52678109 61.4765625 33.44921875 C60.74566406 35.20685547 60.74566406 35.20685547 60 37 C59.64268799 37.86625 59.28537598 38.7325 58.91723633 39.625 C55.41620304 48.08346318 51.73487604 56.45511389 48.01757812 64.8203125 C45.21051491 71.16466795 42.51834146 77.53552941 40 84 C39.743396 84.6585498 39.48679199 85.31709961 39.22241211 85.99560547 C38.5607593 87.70378962 37.90515645 89.41431372 37.25 91.125 C36.5075 93.06375 35.765 95.0025 35 97 C28.07 97 21.14 97 14 97 C18.6875 84.41071429 18.6875 84.41071429 21.6875 78.75 C24.68921765 72.85138658 27.03930352 67.3916816 25 60.8125 C24.36409646 59.19589188 23.69274738 57.59307759 23 56 C22.53722656 54.90171875 22.07445312 53.8034375 21.59765625 52.671875 C20.56739599 50.2495837 19.52688051 47.83163058 18.4765625 45.41796875 C16.91166598 41.79552311 15.44020337 38.14520521 13.98828125 34.4765625 C10.60186774 25.99045117 6.98080565 17.60237709 3.33203125 9.2265625 C2.08424652 6.20406928 1.03404216 3.10212649 0 0 Z " fill="#15791C" transform="translate(859,450)"/>
<path d="M0 0 C4.02043796 3.00537689 6.15905323 6.38595324 8.203125 10.8671875 C8.203125 12.8471875 8.203125 14.8271875 8.203125 16.8671875 C2.593125 16.8671875 -3.016875 16.8671875 -8.796875 16.8671875 C-9.456875 15.2171875 -10.116875 13.5671875 -10.796875 11.8671875 C-13.03929285 9.60998448 -14.3292897 8.93640913 -17.48828125 8.46875 C-18.43574219 8.47648437 -19.38320313 8.48421875 -20.359375 8.4921875 C-21.78443359 8.48058594 -21.78443359 8.48058594 -23.23828125 8.46875 C-25.82002396 8.66843341 -25.82002396 8.66843341 -27.60546875 10.203125 C-29.03588387 11.94288113 -29.03588387 11.94288113 -29.296875 14.8671875 C-29.1288221 17.97026783 -29.1288221 17.97026783 -26.80859375 19.40625 C-23.00333097 21.25212326 -19.19914988 22.22006187 -15.109375 23.2421875 C3.95639446 28.32562538 3.95639446 28.32562538 8.421875 35.58203125 C10.42147494 41.43086106 10.40129746 48.25385065 8.45703125 54.1171875 C4.84925959 60.03763331 -2.7324428 63.79624187 -9.2578125 65.515625 C-19.98243917 67.00057331 -31.20628442 66.45510105 -40.234375 59.9921875 C-46.76824237 54.52725548 -47.80547826 51.82847283 -49.796875 42.8671875 C-43.526875 42.8671875 -37.256875 42.8671875 -30.796875 42.8671875 C-29.806875 45.1771875 -28.816875 47.4871875 -27.796875 49.8671875 C-23.95865241 52.71642022 -19.38213399 52.42297647 -14.796875 51.8671875 C-12.37817922 50.7082291 -10.67365404 49.74396654 -8.796875 47.8671875 C-8.37985378 44.9514184 -8.37985378 44.9514184 -8.796875 41.8671875 C-12.01240891 38.59607646 -15.37838917 38.20098627 -19.796875 37.4921875 C-28.9884374 35.84530037 -38.81991229 33.57939745 -44.796875 25.8671875 C-45.395 25.1453125 -45.993125 24.4234375 -46.609375 23.6796875 C-48.82902165 18.42262964 -48.48591996 13.0635183 -46.796875 7.6796875 C-42.6601466 1.86241319 -37.52223123 -2.75998842 -30.54296875 -4.6953125 C-19.67799577 -6.4262897 -9.48309632 -5.97847377 0 0 Z " fill="#167A1E" transform="translate(639.796875,454.1328125)"/>
<path d="M0 0 C5.36525018 3.84325369 8.330867 7.19821172 9.83984375 13.703125 C10.04609375 15.04375 10.25234375 16.384375 10.46484375 17.765625 C4.85484375 17.765625 -0.75515625 17.765625 -6.53515625 17.765625 C-7.19515625 16.115625 -7.85515625 14.465625 -8.53515625 12.765625 C-12.48605306 9.06962476 -16.88565844 9.4093195 -22.01171875 9.3671875 C-24.558325 9.57666409 -24.558325 9.57666409 -26.36328125 11.0703125 C-27.85480229 12.90251456 -27.85480229 12.90251456 -27.66015625 16.265625 C-26.90158545 20.0264527 -26.90158545 20.0264527 -23.48828125 21.37109375 C-19.47057245 22.92173436 -15.37179546 23.74015517 -11.16015625 24.578125 C-2.05695264 26.55947405 5.11225197 29.73673732 10.46484375 37.765625 C12.45745479 41.75084707 11.98514698 46.43366216 11.46484375 50.765625 C8.83688769 57.3627761 4.32919873 61.3594871 -1.97265625 64.453125 C-10.77448679 67.69590467 -22.64556747 68.80162461 -31.47265625 65.203125 C-37.51378251 61.98271365 -43.80613382 57.18685424 -46.53515625 50.765625 C-46.86515625 48.455625 -47.19515625 46.145625 -47.53515625 43.765625 C-41.59515625 43.765625 -35.65515625 43.765625 -29.53515625 43.765625 C-28.54515625 45.745625 -27.55515625 47.725625 -26.53515625 49.765625 C-24.275647 52.03470844 -23.05263169 52.68800368 -19.87890625 53.1640625 C-18.47125 53.15246094 -18.47125 53.15246094 -17.03515625 53.140625 C-16.09671875 53.14835937 -15.15828125 53.15609375 -14.19140625 53.1640625 C-11.08753416 52.69848169 -9.72490083 52.00057073 -7.53515625 49.765625 C-6.84664796 47.7339684 -6.84664796 47.7339684 -6.78515625 45.578125 C-6.70265625 44.32 -6.62015625 43.061875 -6.53515625 41.765625 C-10.3347774 39.52175424 -14.46396064 38.76092925 -18.72265625 37.828125 C-36.87657482 33.67602164 -36.87657482 33.67602164 -43.84765625 26.328125 C-46.44086407 20.85357515 -46.50629617 15.70842152 -45.53515625 9.765625 C-42.72230694 3.92215741 -37.92707173 -0.59122687 -31.84765625 -2.921875 C-21.16793095 -6.19981049 -9.65711214 -5.66974485 0 0 Z " fill="#167A1F" transform="translate(1321.53515625,453.234375)"/>
<path d="M0 0 C3.44653174 2.48375615 5.91574193 4.8931134 8.25 8.4375 C8.75015625 9.17871094 9.2503125 9.91992188 9.765625 10.68359375 C11.07494085 13.14063266 11.59384737 15.25846976 12 18 C-0.7596584 19.92598617 -0.7596584 19.92598617 -7 19 C-9.5 16.625 -9.5 16.625 -11 14 C-15.67143867 10.88570755 -20.52996566 11.40024723 -26 12 C-29.77482849 13.45960035 -31.74938409 15.62407613 -34 19 C-35.71596453 26.86669454 -37.03841774 36.61606281 -32.6875 43.75 C-30.90164705 46.21694401 -29.6195652 47.2536232 -27 49 C-21.10563491 49.57837926 -14.2905223 49.92370969 -9 47 C-8.34 45.35 -7.68 43.7 -7 42 C-1.06 42 4.88 42 11 42 C9.80944027 50.3339181 6.66421849 55.71816679 -0.13671875 60.90234375 C-9.01843532 66.13454995 -18.89366098 67.24419292 -29 66 C-37.58450517 63.56879929 -45.19320012 58.72498408 -49.7890625 50.98828125 C-55.20221715 40.35438267 -56.79460725 29.65952051 -54.3515625 17.87109375 C-52.16438212 11.89840888 -48.49699795 7.42496366 -44 3 C-42.88625 1.88625 -42.88625 1.88625 -41.75 0.75 C-28.88708674 -7.43549026 -13.15489037 -7.65521951 0 0 Z " fill="#167A1E" transform="translate(1134,454)"/>
<path d="M0 0 C6.27 0 12.54 0 19 0 C19 24.75 19 49.5 19 75 C29.89 75 40.78 75 52 75 C52 79.95 52 84.9 52 90 C34.84 90 17.68 90 0 90 C0 60.3 0 30.6 0 0 Z " fill="#167B1E" transform="translate(942,428)"/>
<path d="M0 0 C5.94 0 11.88 0 18 0 C18 31.02 18 62.04 18 94 C12.06 94 6.12 94 0 94 C0 62.98 0 31.96 0 0 Z " fill="#137A1C" transform="translate(1243,425)"/>
<path d="M0 0 C0.33 0 0.66 0 1 0 C1 29.7 1 59.4 1 90 C-13.19 90 -27.38 90 -42 90 C-40.20316528 85.5079132 -38.57839827 82.94897975 -35.6875 79.1875 C-24.45047333 63.94787166 -16.3560752 46.75636126 -10 29 C-9.32172682 27.35034273 -8.63569628 25.70382433 -7.9375 24.0625 C-4.76786155 16.24221301 -2.48189925 8.05789955 0 0 Z " fill="#CE1414" transform="translate(454,502)"/>
<path d="M0 0 C5.94 0 11.88 0 18 0 C18 22.11 18 44.22 18 67 C12.06 67 6.12 67 0 67 C0 44.89 0 22.78 0 0 Z " fill="#107A18" transform="translate(663,451)"/>
<path d="M0 0 C4.68120591 2.75981542 8.19988311 6.13414123 10.65625 11.046875 C11.3440698 19.76366821 10.52265734 25.37569267 5.96875 32.796875 C1.73682905 36.91441971 -3.14697002 38.18984987 -8.96875 38.484375 C-13.40221078 38.31649869 -15.94484305 36.97151587 -19.34375 34.046875 C-24.95021848 27.66173034 -25.96256203 23.17652238 -25.71875 14.796875 C-25.12630852 8.87246022 -23.17341456 5.61194755 -18.83984375 1.68359375 C-13.39298925 -2.13576688 -6.08698189 -2.47537264 0 0 Z " fill="#F8FBF8" transform="translate(1197.34375,465.953125)"/>
<path d="M0 0 C4.36344955 1.62752459 7.21925565 4.19923657 10.4375 7.5 C13.21234775 13.71565896 13.9671349 20.25298519 12.25390625 26.890625 C9.90094637 32.32930044 6.92210341 35.70301841 1.53125 38.21875 C-3.70032507 39.83343366 -9.00228374 40.30769138 -14.11328125 38.078125 C-18.14730189 35.41757177 -20.66383814 32.25568339 -23 28 C-23.55132775 25.14519889 -23.56115793 22.39990509 -23.5 19.5 C-23.51546875 18.76652344 -23.5309375 18.03304688 -23.546875 17.27734375 C-23.50969262 12.08110593 -22.37256302 9.13231623 -19 5 C-12.86005877 -0.40899584 -8.08046014 -0.89107831 0 0 Z " fill="#F8FBF8" transform="translate(736,465)"/>
<path d="M0 0 C5.48347793 2.40152318 9.45506943 5.5091195 12 11 C12.93360134 17.86812149 13.6090473 25.82714981 9.5 31.75 C4.7538412 36.76229854 -0.22744926 39.16858615 -7.125 39.5 C-13.40016801 39.20209769 -16.38893181 36.50599853 -20.875 32.3125 C-24.76252255 26.48754764 -24.19405112 17.69314977 -23 11 C-18.78471583 1.07593693 -10.10387123 -1.58793414 0 0 Z " fill="#F8FBF8" transform="translate(1040,465)"/>
<path d="M0 0 C80.52 0 161.04 0 244 0 C244 0.99 244 1.98 244 3 C163.48 3 82.96 3 0 3 C0 2.01 0 1.02 0 0 Z " fill="#176D1F" transform="translate(847,564)"/>
<path d="M0 0 C4.18906633 -0.16239022 8.37180535 -0.28112844 12.5625 -0.375 C13.74392578 -0.42527344 14.92535156 -0.47554688 16.14257812 -0.52734375 C26.00569422 -0.69311041 26.00569422 -0.69311041 30.27734375 2.8984375 C32.96721054 5.65832888 33.93494254 7.32340243 34.3125 11.25 C33.94328153 15.68062166 32.83161153 17.61779734 30 21 C26.65231517 23.19744038 23.87223126 23.23404148 19.921875 23.1953125 C18.18164062 23.18564453 18.18164062 23.18564453 16.40625 23.17578125 C15.1996875 23.15902344 13.993125 23.14226562 12.75 23.125 C10.91695312 23.11146484 10.91695312 23.11146484 9.046875 23.09765625 C6.03116634 23.07409603 3.01555842 23.03822539 0 23 C0 15.41 0 7.82 0 0 Z " fill="#F5F9F6" transform="translate(803,480)"/>
<path d="M0 0 C72.93 0 145.86 0 221 0 C221 0.99 221 1.98 221 3 C148.07 3 75.14 3 0 3 C0 2.01 0 1.02 0 0 Z " fill="#156B1D" transform="translate(498,564)"/>
<path d="M0 0 C3.50625 -0.061875 7.0125 -0.12375 10.625 -0.1875 C11.71893066 -0.21481201 12.81286133 -0.24212402 13.93994141 -0.27026367 C19.38593171 -0.31672094 23.32088288 -0.1269828 28 3 C30.56588452 5.56588452 30.3554254 6.74466869 30.4375 10.3125 C30.37184255 14.4872198 30.24954683 15.66277456 27.6875 19.125 C23.9546076 21.72934354 21.3325627 22.12330961 16.89453125 22.09765625 C15.56578979 22.09390991 15.56578979 22.09390991 14.21020508 22.09008789 C13.0889624 22.08098389 11.96771973 22.07187988 10.8125 22.0625 C7.244375 22.041875 3.67625 22.02125 0 22 C0 14.74 0 7.48 0 0 Z " fill="#F7FBF7" transform="translate(803,444)"/>
<path d="M0 0 C0.66 0 1.32 0 2 0 C2.37511719 1.08796875 2.75023437 2.1759375 3.13671875 3.296875 C5.86213202 11.14105296 8.66327941 18.88121549 12.01953125 26.484375 C13 29 13 29 14 34 C5.42 34 -3.16 34 -12 34 C-8.625 21.625 -8.625 21.625 -6.73828125 16.89453125 C-6.34189453 15.89228516 -5.94550781 14.89003906 -5.53710938 13.85742188 C-5.13298828 12.85259766 -4.72886719 11.84777344 -4.3125 10.8125 C-3.89677734 9.76513672 -3.48105469 8.71777344 -3.05273438 7.63867188 C-2.040373 5.09031393 -1.02274836 2.54420281 0 0 Z " fill="#F0F7F0" transform="translate(542,451)"/>
<path d="M0 0 C51.15 0 102.3 0 155 0 C155 0.99 155 1.98 155 3 C103.85 3 52.7 3 0 3 C0 2.01 0 1.02 0 0 Z " fill="#166D1F" transform="translate(1177,564)"/>
<path d="M0 0 C3.01884076 1.52047841 5.09356369 3.19955163 7 6 C7.88843924 9.12170773 7.58510442 10.64894741 7 14 C4.9071636 17.43823122 2.889003 19.81169353 -1 21 C-6.16455696 21.57383966 -6.16455696 21.57383966 -9 21 C-11.9375 18.5625 -11.9375 18.5625 -14 16 C-14.33 15.67 -14.66 15.34 -15 15 C-15.49783265 11.5970933 -15.53664866 8.39877488 -15 5 C-10.96330329 -0.17525219 -6.42615614 -1.54539049 0 0 Z " fill="#187C1F" transform="translate(676,421)"/>
<path d="M0 0 C2.97 0 5.94 0 9 0 C9.33 1.32 9.66 2.64 10 4 C6.7 4 3.4 4 0 4 C0 2.68 0 1.36 0 0 Z " fill="#2A7C37" transform="translate(818,563)"/>
<path d="M0 0 C5.94 0 11.88 0 18 0 C18 0.33 18 0.66 18 1 C16.95199219 1.03738281 15.90398437 1.07476562 14.82421875 1.11328125 C13.44527695 1.17894515 12.06637229 1.24539235 10.6875 1.3125 C9.65206055 1.34633789 9.65206055 1.34633789 8.59570312 1.38085938 C4.54757542 1.55234057 4.54757542 1.55234057 1.14453125 3.54296875 C0.76683594 4.02378906 0.38914062 4.50460937 0 5 C-0.66 5 -1.32 5 -2 5 C-1.34 3.35 -0.68 1.7 0 0 Z " fill="#45934C" transform="translate(1127,496)"/>
<path d="M0 0 C2.31 0 4.62 0 7 0 C7 1.32 7 2.64 7 4 C4.69 4 2.38 4 0 4 C0 2.68 0 1.36 0 0 Z " fill="#287B32" transform="translate(768,563)"/>
<path d="M0 0 C2.31 0 4.62 0 7 0 C7 1.32 7 2.64 7 4 C4.69 4 2.38 4 0 4 C0 2.68 0 1.36 0 0 Z " fill="#20762E" transform="translate(780,563)"/>
<path d="M0 0 C1.98 0 3.96 0 6 0 C6.33 1.32 6.66 2.64 7 4 C4.69 4 2.38 4 0 4 C0 2.68 0 1.36 0 0 Z " fill="#1C6C28" transform="translate(1133,563)"/>
<path d="M0 0 C0.66 0 1.32 0 2 0 C1.46148032 5.27749285 0.22656164 9.25645564 -2 14 C-2.33 14 -2.66 14 -3 14 C-2.48594831 9.03083364 -1.76615118 4.70973649 0 0 Z " fill="#C32D2D" transform="translate(436,510)"/>
<path d="M0 0 C1.98 0 3.96 0 6 0 C6 1.32 6 2.64 6 4 C4.02 4 2.04 4 0 4 C0 2.68 0 1.36 0 0 Z " fill="#2F823D" transform="translate(1158,563)"/>
<path d="M0 0 C1.98 0 3.96 0 6 0 C6 1.32 6 2.64 6 4 C4.02 4 2.04 4 0 4 C0 2.68 0 1.36 0 0 Z " fill="#247B30" transform="translate(1121,563)"/>
<path d="M0 0 C1.98 0 3.96 0 6 0 C6 1.32 6 2.64 6 4 C4.02 4 2.04 4 0 4 C0 2.68 0 1.36 0 0 Z " fill="#2A8536" transform="translate(793,563)"/>
<path d="M0 0 C1.65 0 3.3 0 5 0 C5 1.32 5 2.64 5 4 C3.02 4 1.04 4 -1 4 C-0.67 2.68 -0.34 1.36 0 0 Z " fill="#257D31" transform="translate(1145,563)"/>
<path d="M0 0 C-1.44077046 3.36179774 -3.24750021 5.59156268 -6 8 C-6.66 8 -7.32 8 -8 8 C-6.48291727 4.46014029 -4.24676932 0 0 0 Z " fill="#1F7D27" transform="translate(602,454)"/>
<path d="M0 0 C1.65 0 3.3 0 5 0 C5 1.32 5 2.64 5 4 C3.35 4 1.7 4 0 4 C0 2.68 0 1.36 0 0 Z " fill="#147021" transform="translate(734,563)"/>
<path d="M0 0 C1.65 0 3.3 0 5 0 C5 1.32 5 2.64 5 4 C3.35 4 1.7 4 0 4 C0 2.68 0 1.36 0 0 Z " fill="#177023" transform="translate(757,563)"/>
<path d="M0 0 C0.66 0.33 1.32 0.66 2 1 C1.0479279 2.00596297 0.08812654 3.00461563 -0.875 4 C-1.40867187 4.556875 -1.94234375 5.11375 -2.4921875 5.6875 C-4 7 -4 7 -6 7 C-4.60667426 3.63279613 -3.0210714 2.0140476 0 0 Z " fill="#D2E8D2" transform="translate(1106,466)"/>
<path d="M0 0 C2.10633718 1.70828921 2.93801608 2.52148416 3.29296875 5.26171875 C3.25816406 6.06222656 3.22335938 6.86273438 3.1875 7.6875 C3.16042969 8.49574219 3.13335937 9.30398438 3.10546875 10.13671875 C3.07066406 10.75160156 3.03585938 11.36648438 3 12 C2.67 12 2.34 12 2 12 C0.86235649 7.73383684 0 4.43513689 0 0 Z " fill="#CD4F4F" transform="translate(207,504)"/>
<path d="M0 0 C0.66 0.33 1.32 0.66 2 1 C0.99806563 4.79303725 0.18975773 7.71536341 -2 11 C-1 3.57142857 -1 3.57142857 0 0 Z " fill="#C93130" transform="translate(440,497)"/>
<path d="M0 0 C2.475 0.495 2.475 0.495 5 1 C5 1.66 5 2.32 5 3 C5.99 3 6.98 3 8 3 C7.67 3.99 7.34 4.98 7 6 C3.535 4.02 3.535 4.02 0 2 C0 1.34 0 0.68 0 0 Z " fill="#35853D" transform="translate(1195,464)"/>
</svg>
